# xmcd CD database file
#
# Track frame offsets:
#	150
#	23375
#	38450
#	56625
#	80627
#	101482
#
# Disc length: 1658 seconds
#
# Revision: 0
# Processed by: cddbd v1.5.1PL0 Copyright (c) Steve Scherf et al.
# Submitted via: CDex 1.51
#
DISCID=39067806
DTITLE=Vogus Image - 真空パック
DYEAR=2003
DGENRE=JPop
TTITLE0=無題
TTITLE1=真空パック
TTITLE2=BURST
TTITLE3=僕の神様
TTITLE4=君に映るもの
TTITLE5=深海魚と流星群
EXTD=YEAR: 2003
EXTT0=
EXTT1=
EXTT2=
EXTT3=
EXTT4=
EXTT5=
PLAYORDER=
